<?xml version="1.0" standalone="no"?>
<!DOCTYPE svg PUBLIC "-//W3C//DTD SVG 1.1//EN" "http://www.w3.org/Graphics/SVG/1.1/DTD/svg11.dtd" >
<svg>
<metadata>
Created by FontForge 20110222 at Thu May 29 13:52:32 2014
 By Orthosie Webhosting
Copyright (c) 2012 by Tyler Finck. All rights reserved.
</metadata>
<defs>
<font id="OstrichSansProRegular" horiz-adv-x="759" >
  <font-face 
    font-family="Ostrich Sans Pro Regular"
    font-weight="400"
    font-stretch="normal"
    units-per-em="2048"
    panose-1="2 0 5 8 3 0 0 2 0 2"
    ascent="1638"
    descent="-410"
    x-height="1380"
    cap-height="1380"
    bbox="-215 -258.554 1976 1755"
    underline-thickness="102"
    underline-position="-102"
    unicode-range="U+0020-FB04"
  />
<missing-glyph horiz-adv-x="507" 
 />
    <glyph glyph-name=".notdef" horiz-adv-x="507" 
 />
    <glyph glyph-name=".null" horiz-adv-x="0" 
 />
    <glyph glyph-name="nonmarkingreturn" horiz-adv-x="682" 
 />
    <glyph glyph-name="space" unicode=" " horiz-adv-x="307" 
 />
    <glyph glyph-name="exclam" unicode="!" horiz-adv-x="190" 
d="M18 2v88h64v-88h-64zM18 203v1179h64v-1179h-64z" />
    <glyph glyph-name="quotedbl" unicode="&#x22;" horiz-adv-x="331" 
d="M20 1200v180h66v-180h-66zM141 1200v180h66v-180h-66z" />
    <glyph glyph-name="numbersign" unicode="#" horiz-adv-x="1110" 
d="M-41 463v65h299l64 322h-299v65h311l90 465h68l-93 -465h291l88 465h66l-88 -465h245v-65h-260l-61 -322h258v-65h-272l-88 -463h-66l88 463h-289l-90 -463h-65l90 463h-287zM324 528h288l64 322h-289z" />
    <glyph glyph-name="dollar" unicode="$" horiz-adv-x="655" 
d="M72 424v45h63v-45q0 -121 43 -177.5t105 -64.5v492q-201 152 -201 323q0 104 57.5 184.5t143.5 92.5v108h65v-108q98 0 154.5 -88t56.5 -232v-28h-63v28q0 233 -148 258v-507q43 -33 85 -74t85 -109.5t43 -128.5q0 -125 -56 -199.5t-157 -84.5v-109h-65v109
q-211 18 -211 315zM139 995q0 -121 144 -239v456q-61 -12 -102.5 -75.5t-41.5 -141.5zM348 184q68 8 109 60.5t41 136.5q0 100 -150 240v-437z" />
    <glyph glyph-name="percent" unicode="%" horiz-adv-x="919" 
d="M0 922v176q0 82 47 135t121 53t121 -53t47 -135v-176q0 -82 -47 -135.5t-121 -53.5t-121 53.5t-47 135.5zM63 922q0 -49 26 -86t79 -37t77.5 36.5t24.5 86.5v176q0 49 -24.5 86t-77.5 37t-79 -37t-26 -86v-176zM102 0l553 1380h70l-553 -1380h-70zM502 281v176
q0 84 46 135t122 51q74 0 120 -52t46 -134v-176q0 -84 -46.5 -136.5t-119.5 -52.5q-76 0 -122 52.5t-46 136.5zM565 281q0 -49 25.5 -87t79.5 -38q51 0 76.5 37.5t25.5 87.5v176q0 49 -25.5 86t-76.5 37q-53 0 -79 -37t-26 -86v-176z" />
    <glyph glyph-name="ampersand" unicode="&#x26;" horiz-adv-x="872" 
d="M0 330q0 55 17.5 107t35 86t65.5 85t67.5 69.5t82.5 74.5q-154 227 -153 362q0 104 49 185t158 81q203 0 202 -270q0 -199 -170 -377l264 -452q41 115 41 309v41h66v-41q0 -246 -66 -379l123 -211h-73l-86 147q-104 -147 -314 -147q-137 0 -223 94.5t-86 235.5zM63 334
q0 -113 62.5 -190.5t183.5 -77.5q190 0 277 143l-285 485q-6 -4 -46 -40l-50 -45q-10 -9 -42 -40.5t-42 -51t-27.5 -51.5t-24 -64.5t-6.5 -67.5zM180 1100q0 -31 9.5 -67t30 -74.5t33.5 -63.5t37.5 -63.5t26.5 -43.5q68 59 105 145.5t37 166.5q0 111 -40 162t-97 51
q-55 0 -98.5 -47t-43.5 -166z" />
    <glyph glyph-name="quotesingle" unicode="'" horiz-adv-x="165" 
d="M20 1200v180h64v-180h-64z" />
    <glyph glyph-name="parenleft" unicode="(" horiz-adv-x="339" 
d="M14 686q0 156 20.5 285t45 197.5t58.5 123t46.5 65.5t24.5 19l37 -55q-43 -29 -84 -121q-84 -197 -84 -514q0 -319 84 -510q18 -39 38.5 -68.5t32.5 -37.5l11 -11l-33 -55q-55 37 -102 137q-95 195 -95 545z" />
    <glyph glyph-name="parenright" unicode=")" horiz-adv-x="323" 
d="M27 59q41 29 82 121q84 186 84 514q0 324 -82 510q-18 41 -39 70t-32 38t-13 9h2l32 55q57 -37 103 -137q94 -195 94 -545q0 -156 -20.5 -283.5t-45 -197.5t-59.5 -123t-47 -65.5t-25 -20.5z" />
    <glyph glyph-name="asterisk" unicode="*" horiz-adv-x="604" 
d="M20 1174l23 61l199 -74v211h63v-211l199 74l22 -61l-198 -74l149 -168l-49 -43l-156 176l-153 -176l-49 43l147 168z" />
    <glyph glyph-name="plus" unicode="+" horiz-adv-x="667" 
d="M25 662v65h237v258h66v-258h237v-65h-237v-259h-66v259h-237z" />
    <glyph glyph-name="comma" unicode="," horiz-adv-x="161" 
d="M-47 -102l61 190h70l-76 -190h-55z" />
    <glyph glyph-name="hyphen" unicode="-" horiz-adv-x="612" 
d="M27 657v64h499v-64h-499z" />
    <glyph glyph-name="period" unicode="." horiz-adv-x="165" 
d="M25 0v88h65v-88h-65z" />
    <glyph glyph-name="slash" unicode="/" horiz-adv-x="786" 
d="M43 0l553 1380h70l-553 -1380h-70z" />
    <glyph glyph-name="zero" unicode="0" horiz-adv-x="684" 
d="M18 319v744q8 328 277 328q139 0 207.5 -96.5t68.5 -231.5v-744q-4 -143 -70.5 -236t-205.5 -93q-141 4 -209 98t-68 231zM82 340q0 -287 213 -287q211 0 211 287v702q0 285 -211 285q-213 0 -213 -285v-702z" />
    <glyph glyph-name="one" unicode="1" horiz-adv-x="397" 
d="M16 1108l209 272h64v-1380h-66v1270l-157 -203z" />
    <glyph glyph-name="two" unicode="2" horiz-adv-x="655" 
d="M25 0v33q0 176 49 309q53 150 186 270q213 195 213 453q0 109 -47 188.5t-145 79.5q-104 0 -148.5 -82t-44.5 -194v-47h-63v47q8 336 256 336q127 0 191.5 -98.5t64.5 -229.5q0 -293 -234 -502q-205 -180 -213 -500h191h223h33v-63h-33h-223h-256z" />
    <glyph glyph-name="three" unicode="3" horiz-adv-x="622" 
d="M20 377h66q0 -184 46 -254t149 -70q186 0 186 303q0 96 -28.5 162t-76 93.5t-84 37.5t-73.5 10v60q109 0 185.5 68.5t76.5 234.5q0 141 -46 224t-140 83q-195 0 -195 -328h-66q0 389 261 390q121 0 186 -97.5t65 -271.5q0 -158 -68.5 -246t-131.5 -88q25 0 51.5 -10
t64 -40t61 -102.5t23.5 -179.5q0 -174 -67.5 -270t-183.5 -96q-131 0 -196 86t-65 301z" />
    <glyph glyph-name="four" unicode="4" horiz-adv-x="663" 
d="M20 483v62l486 835h61v-1380h-65v483h-482zM96 551h406v692z" />
    <glyph glyph-name="five" unicode="5" horiz-adv-x="634" 
d="M18 330v51h66v-51q4 -135 42 -206t148 -71q100 0 145.5 81t45.5 196v176q-2 68 -9 113t-25.5 89t-57.5 65.5t-99 21.5q-63 0 -122.5 -50.5t-67.5 -115.5v-8v-5h-66v5v8v751h66h405v-63h-405v-567q16 47 72.5 78.5t117.5 31.5q256 0 256 -340v-192q2 -139 -63.5 -238.5
t-192.5 -99.5q-252 0 -256 340z" />
    <glyph glyph-name="six" unicode="6" horiz-adv-x="638" 
d="M18 293v225v2v449q0 422 256 422q127 0 191.5 -85t64.5 -210v-82h-65v82q-4 231 -191 231q-190 0 -190 -379v-196q14 51 72.5 89t117.5 38q139 0 197.5 -97.5t58.5 -242.5v-201q-4 -143 -65.5 -245.5t-190.5 -102.5q-123 0 -189.5 76.5t-66.5 226.5zM84 293
q0 -240 190 -240q70 0 116 50.5t60.5 109.5t14.5 125v201q-2 125 -42 200.5t-149 75.5q-70 0 -114.5 -52t-60 -113.5t-15.5 -129.5v-227z" />
    <glyph glyph-name="seven" unicode="7" horiz-adv-x="526" 
d="M-8 0l407 1317h-387v63h457v-61l-408 -1319h-69z" />
    <glyph glyph-name="eight" unicode="8" horiz-adv-x="679" 
d="M10 348q0 268 140 342q-125 72 -125 340q0 360 268 361q139 0 202.5 -99.5t63.5 -261.5q0 -119 -23.5 -206t-101.5 -134q139 -72 139 -342q0 -158 -64.5 -259t-215.5 -101q-283 0 -283 360zM74 344q0 -291 219 -291q217 0 217 291q0 309 -217 318q-219 -1 -219 -318z
M86 1022q0 -63 7 -110.5t27.5 -94.5t63.5 -72.5t109 -25.5q84 0 131 46t59.5 106.5t12.5 150.5q0 313 -203 313q-207 0 -207 -313z" />
    <glyph glyph-name="nine" unicode="9" horiz-adv-x="630" 
d="M16 322v65h66v-65q0 -133 49 -203q49 -68 141 -68q190 0 191 387v187q-16 -47 -73.5 -86t-117.5 -39q-96 0 -155.5 54t-80 127t-20.5 163v203q0 164 69 254t187 90q129 0 192.5 -85t63.5 -214v-248v-2v-404q-2 -63 -4 -97t-9 -97.5t-23.5 -99t-43 -76.5t-71.5 -60.5
t-105 -19.5q-127 0 -192 94q-64 88 -64 240zM82 844q4 -279 190 -279q70 0 116 47t60.5 105.5t14.5 124.5v250q-4 236 -191 235q-102 -4 -146 -87t-44 -193v-203z" />
    <glyph glyph-name="colon" unicode=":" horiz-adv-x="231" 
d="M29 293v115h63v-115h-63zM29 897v115h63v-115h-63z" />
    <glyph glyph-name="semicolon" unicode=";" horiz-adv-x="198" 
d="M-33 221h56l71 187h-67zM29 897v115h63v-115h-63z" />
    <glyph glyph-name="less" unicode="&#x3c;" horiz-adv-x="485" 
d="M45 690l277 690h69l-276 -690l276 -690h-69z" />
    <glyph glyph-name="equal" unicode="=" horiz-adv-x="638" 
d="M27 473v64h499v-64h-499zM27 903v64h499v-64h-499z" />
    <glyph glyph-name="greater" unicode="&#x3e;" horiz-adv-x="485" 
d="M45 0l277 690l-277 690h70l276 -690l-276 -690h-70z" />
    <glyph glyph-name="question" unicode="?" horiz-adv-x="667" 
d="M12 1004v18q0 371 285 371q139 0 208.5 -89.5t69.5 -250.5q0 -55 -10 -107.5t-21.5 -85.5t-35 -71.5t-34.5 -54t-37.5 -46.5t-28.5 -33q-57 -61 -74 -178t-17 -293h-67q0 76 2 119t9 121t29.5 140.5t57.5 113.5q2 4 41 51t59.5 80t43 98.5t22.5 134.5q0 293 -215 293
q-227 0 -227 -313v-18h-60zM250 0v88h67v-88h-67z" />
    <glyph glyph-name="at" unicode="@" horiz-adv-x="1325" 
d="M53 770q33 205 166 357.5t342 191.5q383 70 561 -166q129 -174 99 -432q-29 -233 -168 -367q-119 -113 -273 -88q-100 16 -78 115q-10 -33 -71.5 -59.5t-108.5 -26.5q-113 0 -166 108.5t-20 266.5q37 172 128 291.5t243 117.5q43 -2 79.5 -29.5t34.5 -64.5l17 74h69
l-143 -647q-14 -72 16 -82q143 -51 260 104q113 150 117 365q8 256 -153 383q-152 119 -422 75q-164 -27 -294 -151.5t-171 -345.5q-27 -143 4 -265t101.5 -205t175 -133.5t222 -59.5t244.5 24t240 110l61 -36q-109 -84 -246 -125t-270 -37t-255 55t-209 140t-125 229.5
t-7 312.5zM406 666q-27 -133 8 -219.5t129 -88.5q72 0 113.5 44t59 100.5t46.5 204.5q6 33 10 49q27 123 0 195.5t-108 64.5q-86 -8 -157.5 -105.5t-100.5 -244.5z" />
    <glyph glyph-name="A" unicode="A" horiz-adv-x="774" 
d="M2 0l317 1380h52l315 -1380h-65l-95 422h-364l-94 -422h-66zM178 485h334l-168 721z" />
    <glyph glyph-name="B" unicode="B" horiz-adv-x="657" 
d="M0 0v1380h199q174 0 258 -87t84 -273q0 -252 -144 -330q168 -80 168 -330q0 -186 -74.5 -273t-230.5 -87h-260zM66 66h194q127 0 183.5 68.5t56.5 225.5q0 154 -64.5 226.5t-195.5 72.5h-174v-593zM66 723h153q131 0 193.5 70.5t62.5 226.5q0 154 -72.5 229.5
t-203.5 75.5h-133v-602z" />
    <glyph glyph-name="C" unicode="C" horiz-adv-x="739" 
d="M16 352v678q0 106 30 182t79 114t99 53.5t108 15.5q55 0 105 -15.5t99.5 -53.5t79 -113.5t29.5 -182.5v-47h-65v47q0 131 -61.5 216t-186.5 85q-129 0 -189.5 -86t-60.5 -215v-678q0 -133 61.5 -218t188.5 -85q125 0 186.5 89t61.5 214v47h65v-47q0 -109 -28.5 -184.5
t-79 -113.5t-100.5 -53t-105 -15q-57 0 -107.5 15t-99.5 53t-79 113.5t-30 184.5z" />
    <glyph glyph-name="D" unicode="D" horiz-adv-x="706" 
d="M25 0v1380h266q319 -8 319 -372v-635q-6 -373 -319 -373h-266zM88 63h188q268 0 269 322v610q0 322 -269 322h-188v-1254z" />
    <glyph glyph-name="E" unicode="E" horiz-adv-x="620" 
d="M20 0v1380h496v-63h-432v-594h289v-64h-289v-596h432v-63h-496z" />
    <glyph glyph-name="F" unicode="F" horiz-adv-x="593" 
d="M14 0v1380h496v-63h-432v-594h289v-64h-289v-659h-64z" />
    <glyph glyph-name="G" unicode="G" 
d="M20 350v682q0 162 80 262.5t236 100.5t235.5 -104.5t79.5 -258.5v-47h-65v47q0 299 -250 299q-252 0 -252 -299v-682q0 -131 63.5 -216t188.5 -85t187.5 89t62.5 212v309h-238v64h303v-373q0 -160 -81 -262t-234 -102q-158 0 -237 104t-79 260z" />
    <glyph glyph-name="H" unicode="H" horiz-adv-x="671" 
d="M20 0v1380h66v-659h438v659h66v-1380h-66v657h-438v-657h-66z" />
    <glyph glyph-name="I" unicode="I" horiz-adv-x="223" 
d="M39 0v1380h63v-1380h-63z" />
    <glyph glyph-name="J" unicode="J" horiz-adv-x="686" 
d="M0 324v45h63v-45q0 -156 67 -217.5t155 -61.5q219 0 219 315v1029h63v-1049q0 -354 -282 -354q-145 0 -215 95.5t-70 242.5z" />
    <glyph glyph-name="K" unicode="K" horiz-adv-x="684" 
d="M16 0v1382h70v-704l418 704h80l-377 -639l414 -743h-80l-375 676l-80 -129v-547h-70z" />
    <glyph glyph-name="L" unicode="L" horiz-adv-x="579" 
d="M8 0v1380h66v-1317h422v-63h-488z" />
    <glyph glyph-name="M" unicode="M" horiz-adv-x="833" 
d="M14 0v1380h56l290 -1126l13 -64l10 -55q8 39 10 55q8 49 13 64l288 1126h58v-1380h-66v991v148l-35 -176l-243 -963h-50l-252 987l-28 152v-140v-999h-64z" />
    <glyph glyph-name="N" unicode="N" horiz-adv-x="696" 
d="M18 0v1380h56l444 -1104l33 -118l-2 98v1124h65v-1380h-53l-459 1137l-18 86v-41v-78v-1104h-66z" />
    <glyph glyph-name="O" unicode="O" 
d="M20 352v678q4 164 81 264.5t232.5 100.5t235.5 -104.5t80 -260.5v-678q0 -109 -29.5 -184.5t-78.5 -113.5t-99.5 -53t-107.5 -15q-55 0 -105.5 15t-100.5 53t-79 113.5t-29 184.5zM84 352q4 -135 63.5 -219t186.5 -84q129 0 189.5 87t60.5 216v678q-8 301 -250 301
q-129 -4 -189.5 -88t-60.5 -213v-678z" />
    <glyph glyph-name="P" unicode="P" horiz-adv-x="661" 
d="M23 0v1380h247q322 -8 322 -360q0 -360 -322 -361h-184v-659h-63zM86 723h164q154 0 215 72.5t61 224.5q0 156 -68.5 226.5t-207.5 70.5h-164v-594z" />
    <glyph glyph-name="Q" unicode="Q" horiz-adv-x="763" 
d="M12 358v678q0 154 80 256.5t236 102.5q154 0 231.5 -99.5t81.5 -259.5v-678q0 -176 -72 -272l-4 -4l133 -160h-84l-94 115q-70 -51 -192 -51q-154 0 -233 105t-83 267zM78 358q0 -129 60.5 -217t189.5 -92q98 0 151 37l-92 113h82l55 -66q51 76 51 225v678q0 127 -60 211
t-187 84q-242 0 -250 -295v-678z" />
    <glyph glyph-name="R" unicode="R" horiz-adv-x="653" 
d="M0 0v1380h268q162 0 230.5 -88t68.5 -278q0 -135 -33.5 -210t-123.5 -116q150 -29 149 -270v-418h-65v412q0 127 -54.5 186t-175.5 59h-201v-657h-63zM63 723h154h31q145 0 200.5 65.5t55.5 225.5q0 162 -59.5 231.5t-196.5 69.5h-185v-592z" />
    <glyph glyph-name="S" unicode="S" horiz-adv-x="712" 
d="M20 352v45h64v-45q0 -96 21.5 -160.5t59.5 -92t72.5 -38t79.5 -10.5q113 0 175.5 61.5t62.5 184.5q0 172 -248 360q-129 100 -188 185q-84 117 -84 239q0 143 83 229.5t210 86.5q150 0 215 -91.5t65 -277.5v-24h-63v24q0 311 -217 311q-106 0 -169 -70.5t-63 -189.5
q0 -72 49.5 -152.5t95.5 -125.5t89 -78q49 -39 75.5 -61.5t88 -84t94.5 -131t33 -139.5q0 -319 -304 -319q-297 -1 -297 364z" />
    <glyph glyph-name="T" unicode="T" horiz-adv-x="727" 
d="M10 1317v65h643v-65h-291v-1315h-63v1315h-289z" />
    <glyph glyph-name="U" unicode="U" horiz-adv-x="751" 
d="M14 326v1056h64v-1056q0 -86 25.5 -145.5t68.5 -85t80 -35t78 -9.5t77.5 9.5t78.5 35t68 85t26 145.5v1056h63v-1056q0 -100 -30.5 -171t-81 -105t-99.5 -48t-102.5 -14t-103.5 14t-100 48t-81 105t-31 171z" />
    <glyph glyph-name="V" unicode="V" horiz-adv-x="765" 
d="M0 1382h66l280 -1216l279 1216h67l-321 -1380h-49z" />
    <glyph glyph-name="W" unicode="W" horiz-adv-x="1163" 
d="M0 1380h66l247 -1130l6 -41l7 -47q4 37 6 57q2 18 4 31l199 1130h51l196 -1124l6 -41l5 -51q6 35 6 43q4 39 6 51l244 1122h67l-301 -1380h-53l-203 1137l-203 -1137h-51z" />
    <glyph glyph-name="X" unicode="X" horiz-adv-x="675" 
d="M-8 0l266 709l-260 671h65l232 -608l225 608h66l-256 -671l266 -709h-72l-229 627l-232 -627h-71z" />
    <glyph glyph-name="Y" unicode="Y" horiz-adv-x="681" 
d="M0 1380h74l239 -694l240 694h74l-281 -800v-580h-63v580z" />
    <glyph glyph-name="Z" unicode="Z" horiz-adv-x="686" 
d="M10 0v63l510 1258h-479v59h549v-59l-510 -1255h-4h524v-66h-590z" />
    <glyph glyph-name="bracketleft" unicode="[" horiz-adv-x="360" 
d="M47 0v1380h236v-63h-172v-1254h172v-63h-236z" />
    <glyph glyph-name="backslash" unicode="\" horiz-adv-x="778" 
d="M45 1380h70l553 -1380h-70z" />
    <glyph glyph-name="bracketright" unicode="]" horiz-adv-x="360" 
d="M35 0v63h172v1254h-172v63h235v-1380h-235z" />
    <glyph glyph-name="asciicircum" unicode="^" horiz-adv-x="737" 
d="M0 1225v69l322 195l321 -195v-69l-321 194z" />
    <glyph glyph-name="underscore" unicode="_" horiz-adv-x="944" 
d="M41 0h827v-63h-827v63z" />
    <glyph glyph-name="grave" unicode="`" horiz-adv-x="299" 
d="M14 1382h70l109 -190h-56z" />
    <glyph glyph-name="a" unicode="a" horiz-adv-x="774" 
d="M2 0l317 1380h52l315 -1380h-65l-95 422h-364l-94 -422h-66zM178 485h334l-168 721z" />
    <glyph glyph-name="b" unicode="b" horiz-adv-x="657" 
d="M0 0v1380h199q174 0 258 -87t84 -273q0 -252 -144 -330q168 -80 168 -330q0 -186 -74.5 -273t-230.5 -87h-260zM66 66h194q127 0 183.5 68.5t56.5 225.5q0 154 -64.5 226.5t-195.5 72.5h-174v-593zM66 723h153q131 0 193.5 70.5t62.5 226.5q0 154 -72.5 229.5
t-203.5 75.5h-133v-602z" />
    <glyph glyph-name="c" unicode="c" horiz-adv-x="739" 
d="M16 352v678q0 106 30 182t79 114t99 53.5t108 15.5q55 0 105 -15.5t99.5 -53.5t79 -113.5t29.5 -182.5v-47h-65v47q0 131 -61.5 216t-186.5 85q-129 0 -189.5 -86t-60.5 -215v-678q0 -133 61.5 -218t188.5 -85q125 0 186.5 89t61.5 214v47h65v-47q0 -109 -28.5 -184.5
t-79 -113.5t-100.5 -53t-105 -15q-57 0 -107.5 15t-99.5 53t-79 113.5t-30 184.5z" />
    <glyph glyph-name="d" unicode="d" horiz-adv-x="706" 
d="M25 0v1380h266q319 -8 319 -372v-635q-6 -373 -319 -373h-266zM88 63h188q268 0 269 322v610q0 322 -269 322h-188v-1254z" />
    <glyph glyph-name="e" unicode="e" horiz-adv-x="620" 
d="M20 0v1380h496v-63h-432v-594h289v-64h-289v-596h432v-63h-496z" />
    <glyph glyph-name="f" unicode="f" horiz-adv-x="593" 
d="M14 0v1380h496v-63h-432v-594h289v-64h-289v-659h-64z" />
    <glyph glyph-name="g" unicode="g" 
d="M20 350v682q0 162 80 262.5t236 100.5t235.5 -104.5t79.5 -258.5v-47h-65v47q0 299 -250 299q-252 0 -252 -299v-682q0 -131 63.5 -216t188.5 -85t187.5 89t62.5 212v309h-238v64h303v-373q0 -160 -81 -262t-234 -102q-158 0 -237 104t-79 260z" />
    <glyph glyph-name="h" unicode="h" horiz-adv-x="671" 
d="M20 0v1380h66v-659h438v659h66v-1380h-66v657h-438v-657h-66z" />
    <glyph glyph-name="i" unicode="i" horiz-adv-x="223" 
d="M39 0v1380h63v-1380h-63z" />
    <glyph glyph-name="j" unicode="j" horiz-adv-x="686" 
d="M0 324v45h63v-45q0 -156 67 -217.5t155 -61.5q219 0 219 315v1029h63v-1049q0 -354 -282 -354q-145 0 -215 95.5t-70 242.5z" />
    <glyph glyph-name="k" unicode="k" horiz-adv-x="681" 
d="M16 0v1382h70v-704l418 704h80l-377 -639l414 -743h-80l-375 676l-80 -129v-547h-70z" />
    <glyph glyph-name="l" unicode="l" horiz-adv-x="579" 
d="M8 0v1380h66v-1317h422v-63h-488z" />
    <glyph glyph-name="m" unicode="m" horiz-adv-x="833" 
d="M14 0v1380h56l290 -1126l13 -64l10 -55q8 39 10 55q8 49 13 64l288 1126h58v-1380h-66v991v148l-35 -176l-243 -963h-50l-252 987l-28 152v-140v-999h-64z" />
    <glyph glyph-name="n" unicode="n" horiz-adv-x="696" 
d="M18 0v1380h56l444 -1104l33 -118l-2 98v1124h65v-1380h-53l-459 1137l-18 86v-41v-78v-1104h-66z" />
    <glyph glyph-name="o" unicode="o" 
d="M20 352v678q4 164 81 264.5t232.5 100.5t235.5 -104.5t80 -260.5v-678q0 -109 -29.5 -184.5t-78.5 -113.5t-99.5 -53t-107.5 -15q-55 0 -105.5 15t-100.5 53t-79 113.5t-29 184.5zM84 352q4 -135 63.5 -219t186.5 -84q129 0 189.5 87t60.5 216v678q-8 301 -250 301
q-129 -4 -189.5 -88t-60.5 -213v-678z" />
    <glyph glyph-name="p" unicode="p" horiz-adv-x="661" 
d="M23 0v1380h247q322 -8 322 -360q0 -360 -322 -361h-184v-659h-63zM86 723h164q154 0 215 72.5t61 224.5q0 156 -68.5 226.5t-207.5 70.5h-164v-594z" />
    <glyph glyph-name="q" unicode="q" horiz-adv-x="763" 
d="M12 358v678q0 154 80 256.5t236 102.5q154 0 231.5 -99.5t81.5 -259.5v-678q0 -176 -72 -272l-4 -4l133 -160h-84l-94 115q-70 -51 -192 -51q-154 0 -233 105t-83 267zM78 358q0 -129 60.5 -217t189.5 -92q98 0 151 37l-92 113h82l55 -66q51 76 51 225v678q0 127 -60 211
t-187 84q-242 0 -250 -295v-678z" />
    <glyph glyph-name="r" unicode="r" horiz-adv-x="653" 
d="M0 0v1380h268q162 0 230.5 -88t68.5 -278q0 -135 -33.5 -210t-123.5 -116q150 -29 149 -270v-418h-65v412q0 127 -54.5 186t-175.5 59h-201v-657h-63zM63 723h154h31q145 0 200.5 65.5t55.5 225.5q0 162 -59.5 231.5t-196.5 69.5h-185v-592z" />
    <glyph glyph-name="s" unicode="s" horiz-adv-x="712" 
d="M20 352v45h64v-45q0 -96 21.5 -160.5t59.5 -92t72.5 -38t79.5 -10.5q113 0 175.5 61.5t62.5 184.5q0 172 -248 360q-129 100 -188 185q-84 117 -84 239q0 143 83 229.5t210 86.5q150 0 215 -91.5t65 -277.5v-24h-63v24q0 311 -217 311q-106 0 -169 -70.5t-63 -189.5
q0 -72 49.5 -152.5t95.5 -125.5t89 -78q49 -39 75.5 -61.5t88 -84t94.5 -131t33 -139.5q0 -319 -304 -319q-297 -1 -297 364z" />
    <glyph glyph-name="t" unicode="t" horiz-adv-x="727" 
d="M10 1317v65h643v-65h-291v-1315h-63v1315h-289z" />
    <glyph glyph-name="u" unicode="u" horiz-adv-x="751" 
d="M14 326v1056h64v-1056q0 -86 25.5 -145.5t68.5 -85t80 -35t78 -9.5t77.5 9.5t78.5 35t68 85t26 145.5v1056h63v-1056q0 -100 -30.5 -171t-81 -105t-99.5 -48t-102.5 -14t-103.5 14t-100 48t-81 105t-31 171z" />
    <glyph glyph-name="v" unicode="v" horiz-adv-x="765" 
d="M0 1382h66l280 -1216l279 1216h67l-321 -1380h-49z" />
    <glyph glyph-name="w" unicode="w" horiz-adv-x="1165" 
d="M0 1380h66l247 -1130l6 -41l7 -47q4 37 6 57q2 18 4 31l199 1130h51l196 -1124l6 -41l5 -51q6 35 6 43q4 39 6 51l244 1122h67l-301 -1380h-53l-203 1137l-203 -1137h-51z" />
    <glyph glyph-name="x" unicode="x" horiz-adv-x="675" 
d="M-8 0l266 709l-260 671h65l232 -608l225 608h66l-256 -671l266 -709h-72l-229 627l-232 -627h-71z" />
    <glyph glyph-name="y" unicode="y" horiz-adv-x="681" 
d="M0 1380h74l239 -694l240 694h74l-281 -800v-580h-63v580z" />
    <glyph glyph-name="z" unicode="z" horiz-adv-x="686" 
d="M10 0v63l510 1258h-479v59h549v-59l-510 -1255h-4h524v-66h-590z" />
    <glyph glyph-name="braceleft" unicode="{" horiz-adv-x="409" 
d="M14 602v80q6 0 21.5 8t34 41t18.5 84v340q0 174 170 217l66 8v-63q-6 0 -18.5 -1t-42.5 -10.5t-52.5 -23.5t-40.5 -44t-18 -69v-333q0 -59 -28 -124t-56 -65q4 0 9 -3t19.5 -17.5t25.5 -38t20.5 -71.5t9.5 -111v-121q0 -61 17 -106.5t43 -66t51.5 -32.5t43.5 -14l17 -3
v-63q-10 0 -25.5 1t-56.5 15.5t-72 38t-56.5 74.5t-25.5 121v176q0 68 -18.5 112t-37 57t-18.5 7z" />
    <glyph glyph-name="bar" unicode="|" horiz-adv-x="182" 
d="M27 0v1380h32v-1380h-32z" />
    <glyph glyph-name="braceright" unicode="}" horiz-adv-x="409" 
d="M31 0v63q6 0 18 2.5t42 14.5t52.5 32.5t41 65.5t18.5 107v121q0 201 76 239l8 2q-29 0 -56.5 64.5t-27.5 124.5v333q0 63 -43 100.5t-86 41.5l-43 6v63q10 0 25.5 -1t56.5 -13t71.5 -32.5t56 -67.5t25.5 -111v-340q0 -51 18.5 -84t34 -41t21.5 -8v-80q0 6 -18.5 -7
t-37 -57t-18.5 -112v-176q0 -70 -24.5 -121t-59.5 -74.5t-68.5 -38t-58.5 -16.5h-24z" />
    <glyph glyph-name="asciitilde" unicode="~" horiz-adv-x="614" 
d="M6 721q66 49 130.5 59.5t109.5 -8t94 -37t87 -29t85 18.5l53 -53q-74 -35 -124 -30t-100 23.5t-90 38t-90 13.5t-102 -49z" />
    <glyph glyph-name="uni00A0" unicode="&#xa0;" horiz-adv-x="307" 
 />
    <glyph glyph-name="exclamdown" unicode="&#xa1;" horiz-adv-x="190" 
d="M18 2v1180h64v-1180h-64zM18 1294v88h64v-88h-64z" />
    <glyph glyph-name="dieresis" unicode="&#xa8;" horiz-adv-x="276" 
d="M25 1294v88h65v-88h-65zM190 1294v88h66v-88h-66z" />
    <glyph glyph-name="copyright" unicode="&#xa9;" horiz-adv-x="1497" 
d="M25 696.5q0 286.5 200.5 488t487 201.5t489.5 -201.5t203 -488t-203 -488.5t-489.5 -202t-487 202t-200.5 488.5zM84 696q0 -262 183.5 -447.5t445.5 -185.5t447.5 185.5t185.5 447.5q0 260 -185.5 444.5t-447.5 184.5t-445.5 -183.5t-183.5 -445.5zM500 467v448
q0 133 61.5 186.5t147.5 53.5q84 0 146.5 -53t62.5 -187v-41h-62v41q0 78 -37 129.5t-110 51.5q-76 0 -112 -52.5t-36 -128.5v-448q0 -80 37 -131t110.5 -51t110.5 53t37 129v39h62v-39q0 -135 -62.5 -188.5t-146.5 -53.5q-86 0 -147.5 53.5t-61.5 188.5z" />
    <glyph glyph-name="ordfeminine" unicode="&#xaa;" horiz-adv-x="774" 
d="M2 0l317 1380h52l315 -1380h-65l-95 422h-364l-94 -422h-66zM178 485h334l-168 721z" />
    <glyph glyph-name="guillemotleft" unicode="&#xab;" horiz-adv-x="954" 
d="M45 690l543 690h80l-543 -690l543 -690h-80zM229 690l543 690h80l-543 -690l543 -690h-80z" />
    <glyph glyph-name="uni00AD" unicode="&#xad;" horiz-adv-x="612" 
d="M27 657v64h499v-64h-499z" />
    <glyph glyph-name="registered" unicode="&#xae;" horiz-adv-x="1497" 
d="M25 696.5q0 286.5 200.5 488t487 201.5t489.5 -201.5t203 -488t-203 -488.5t-489.5 -202t-487 202t-200.5 488.5zM84 696q0 -262 183.5 -447.5t445.5 -185.5t447.5 185.5t185.5 447.5q0 260 -185.5 444.5t-447.5 184.5t-445.5 -183.5t-183.5 -445.5zM563 291v858h158
q94 0 134 -50t40 -161q0 -174 -70 -217q66 -31 66 -129v-301h-57v295q0 59 -29 82.5t-94 23.5h-93v-401h-55zM618 748h93q129 0 129 190q0 82 -30 118t-99 36h-93v-344z" />
    <glyph glyph-name="degree" unicode="&#xb0;" horiz-adv-x="434" 
d="M20 1198q0 70 47.5 117t115 47t115.5 -47t48 -117q0 -68 -48 -115t-115.5 -47t-115 47t-47.5 115zM84 1200q0 -41 28.5 -69.5t69.5 -28.5t71 28.5t30 69.5t-30 70.5t-71 29.5t-69.5 -29.5t-28.5 -70.5z" />
    <glyph glyph-name="plusminus" unicode="&#xb1;" horiz-adv-x="667" 
d="M25 815v66h237v258h66v-258h237v-66h-237v-258h-66v258h-237zM27 387h540v64h-540v-64z" />
    <glyph glyph-name="uni00B2" unicode="&#xb2;" horiz-adv-x="655" 
d="M25 0v33q0 176 49 309q53 150 186 270q213 195 213 453q0 109 -47 188.5t-145 79.5q-104 0 -148.5 -82t-44.5 -194v-47h-63v47q8 336 256 336q127 0 191.5 -98.5t64.5 -229.5q0 -293 -234 -502q-205 -180 -213 -500h191h223h33v-63h-33h-223h-256z" />
    <glyph glyph-name="uni00B3" unicode="&#xb3;" horiz-adv-x="622" 
d="M20 377h66q0 -184 46 -254t149 -70q186 0 186 303q0 96 -28.5 162t-76 93.5t-84 37.5t-73.5 10v60q109 0 185.5 68.5t76.5 234.5q0 141 -46 224t-140 83q-195 0 -195 -328h-66q0 389 261 390q121 0 186 -97.5t65 -271.5q0 -158 -68.5 -246t-131.5 -88q25 0 51.5 -10
t64 -40t61 -102.5t23.5 -179.5q0 -174 -67.5 -270t-183.5 -96q-131 0 -196 86t-65 301z" />
    <glyph glyph-name="acute" unicode="&#xb4;" horiz-adv-x="403" 
d="M158 1192l108 190h70l-123 -190h-55z" />
    <glyph glyph-name="cedilla" unicode="&#xb8;" horiz-adv-x="335" 
d="M-2 -238l27 25q35 -18 76.5 -2t48.5 63q4 35 -24 50.5t-106 -0.5l15 102h49l-23 -66q31 25 93.5 10.5t60.5 -79.5q-2 -72 -72.5 -107t-144.5 4z" />
    <glyph glyph-name="uni00B9" unicode="&#xb9;" horiz-adv-x="397" 
d="M16 1108l209 272h64v-1380h-66v1270l-157 -203z" />
    <glyph glyph-name="ordmasculine" unicode="&#xba;" horiz-adv-x="434" 
d="M20 1198q0 70 47.5 117t115 47t115.5 -47t48 -117q0 -68 -48 -115t-115.5 -47t-115 47t-47.5 115zM84 1200q0 -41 28.5 -69.5t69.5 -28.5t71 28.5t30 69.5t-30 70.5t-71 29.5t-69.5 -29.5t-28.5 -70.5z" />
    <glyph glyph-name="guillemotright" unicode="&#xbb;" horiz-adv-x="1001" 
d="M45 0l543 690l-543 690h80l543 -690l-543 -690h-80zM250 0l543 690l-543 690h80l542 -690l-542 -690h-80z" />
    <glyph glyph-name="onequarter" unicode="&#xbc;" horiz-adv-x="1847" 
d="M1204 483v62l486 835h61v-1380h-65v483h-482zM1280 551h406v692zM440 0l553 1380h70l-553 -1380h-70zM16 1108l209 272h64v-1380h-66v1270l-157 -203z" />
    <glyph glyph-name="onehalf" unicode="&#xbd;" horiz-adv-x="1839" 
d="M1209 0v33q0 176 49 309q53 150 186 270q213 195 213 453q0 109 -47 188.5t-145 79.5q-104 0 -148.5 -82t-44.5 -194v-47h-63v47q8 336 256 336q127 0 191.5 -98.5t64.5 -229.5q0 -293 -234 -502q-205 -180 -213 -500h191h223h33v-63h-33h-223h-256zM440 0l553 1380h70
l-553 -1380h-70zM16 1108l209 272h64v-1380h-66v1270l-157 -203z" />
    <glyph glyph-name="threequarters" unicode="&#xbe;" horiz-adv-x="2072" 
d="M1429 483v62l486 835h61v-1380h-65v483h-482zM1505 551h406v692zM666 0l553 1380h70l-553 -1380h-70zM20 377h66q0 -184 46 -254t149 -70q186 0 186 303q0 96 -28.5 162t-76 93.5t-84 37.5t-73.5 10v60q109 0 185.5 68.5t76.5 234.5q0 141 -46 224t-140 83
q-195 0 -195 -328h-66q0 389 261 390q121 0 186 -97.5t65 -271.5q0 -158 -68.5 -246t-131.5 -88q25 0 51.5 -10t64 -40t61 -102.5t23.5 -179.5q0 -174 -67.5 -270t-183.5 -96q-131 0 -196 86t-65 301z" />
    <glyph glyph-name="questiondown" unicode="&#xbf;" horiz-adv-x="667" 
d="M33 330q0 55 10 107t21.5 85t35 72t34.5 54.5t38 46t29 32.5q57 61 73.5 178t16.5 293h67q0 -76 -2 -119t-9 -120.5t-29.5 -140t-57.5 -113.5q-2 -4 -41 -51.5t-59.5 -80t-43 -98t-22.5 -135.5q0 -293 215 -293q227 0 228 313v19h59v-19q0 -371 -285 -370
q-139 0 -208.5 89t-69.5 251zM291 1294v88h67v-88h-67z" />
    <glyph glyph-name="Agrave" unicode="&#xc0;" horiz-adv-x="802" 
d="M2 0l317 1380h52l315 -1380h-65l-95 422h-364l-94 -422h-66zM178 485h334l-168 721zM256 1653h70l108 -191h-55z" />
    <glyph glyph-name="Aacute" unicode="&#xc1;" horiz-adv-x="802" 
d="M2 0l317 1380h52l315 -1380h-65l-95 422h-364l-94 -422h-66zM178 485h334l-168 721zM254 1462l108 191h70l-123 -191h-55z" />
    <glyph glyph-name="Acircumflex" unicode="&#xc2;" horiz-adv-x="802" 
d="M2 0l317 1380h52l315 -1380h-65l-95 422h-364l-94 -422h-66zM178 485h334l-168 721zM197 1462l108 191h78l109 -191h-56l-92 142l-92 -142h-55z" />
    <glyph glyph-name="Atilde" unicode="&#xc3;" horiz-adv-x="802" 
d="M2 0l317 1380h52l315 -1380h-65l-95 422h-364l-94 -422h-66zM66 1542q66 49 130 59.5t109 -8t94.5 -37t87 -28.5t84.5 18l54 -53q-74 -35 -124 -30t-100.5 23.5t-90.5 38t-90 13.5t-101 -49zM178 485h334l-168 721z" />
    <glyph glyph-name="Adieresis" unicode="&#xc4;" horiz-adv-x="802" 
d="M2 0l317 1380h52l315 -1380h-65l-95 422h-364l-94 -422h-66zM178 485h334l-168 721zM229 1464v88h66v-88h-66zM395 1464v88h66v-88h-66z" />
    <glyph glyph-name="Aring" unicode="&#xc5;" horiz-adv-x="802" 
d="M2 0l317 1380h52l315 -1380h-65l-95 422h-364l-94 -422h-66zM178 485h334l-168 721zM193 1603.5q0 63.5 44 107.5t105 44q63 0 108.5 -44t45.5 -107.5t-45 -106.5t-109 -43q-61 0 -105 43t-44 106.5zM252 1606q0 -39 25.5 -64.5t64.5 -25.5t66.5 25.5t27.5 64.5
t-27.5 66.5t-66.5 27.5t-64.5 -27.5t-25.5 -66.5z" />
    <glyph glyph-name="AE" unicode="&#xc6;" horiz-adv-x="1124" 
d="M2 0l522 1380h512v-63h-432v-594h268v-64h-268v-596h432v-63h-495v659h-205l-260 -659h-74zM348 723h193v387l-2 96z" />
    <glyph glyph-name="Ccedilla" unicode="&#xc7;" horiz-adv-x="739" 
d="M16 352v678q0 106 30 182t79 114t99 53.5t108 15.5q55 0 105 -15.5t99.5 -53.5t79 -113.5t29.5 -182.5v-47h-65v47q0 131 -61.5 216t-186.5 85q-129 0 -189.5 -86t-60.5 -215v-678q0 -133 61.5 -218t188.5 -85q125 0 186.5 89t61.5 214v47h65v-47q0 -109 -28.5 -184.5
t-79 -113.5t-100.5 -53t-105 -15q-57 0 -107.5 15t-99.5 53t-79 113.5t-30 184.5zM281 -236l26 25q35 -18 77 -2t48 63q4 35 -23.5 50.5t-105.5 -0.5l14 102h50l-23 -65q31 25 93.5 10t60.5 -80q-2 -72 -72.5 -107t-144.5 4z" />
    <glyph glyph-name="Egrave" unicode="&#xc8;" horiz-adv-x="620" 
d="M20 0v1380h496v-63h-432v-594h289v-64h-289v-596h432v-63h-496zM180 1653h70l108 -191h-55z" />
    <glyph glyph-name="Eacute" unicode="&#xc9;" horiz-adv-x="620" 
d="M20 0v1380h496v-63h-432v-594h289v-64h-289v-596h432v-63h-496zM182 1462l109 191h69l-122 -191h-56z" />
    <glyph glyph-name="Ecircumflex" unicode="&#xca;" horiz-adv-x="620" 
d="M20 0v1380h496v-63h-432v-594h289v-64h-289v-596h432v-63h-496zM121 1464l108 191h78l109 -191h-56l-92 142l-92 -142h-55z" />
    <glyph glyph-name="Edieresis" unicode="&#xcb;" horiz-adv-x="620" 
d="M20 0v1380h496v-63h-432v-594h289v-64h-289v-596h432v-63h-496zM154 1464v88h65v-88h-65zM319 1464v88h66v-88h-66z" />
    <glyph glyph-name="Igrave" unicode="&#xcc;" horiz-adv-x="223" 
d="M-29 1653h70l109 -191h-56zM39 0v1380h63v-1380h-63z" />
    <glyph glyph-name="Iacute" unicode="&#xcd;" horiz-adv-x="223" 
d="M-29 1462l109 191h70l-123 -191h-56zM39 0v1380h63v-1380h-63z" />
    <glyph glyph-name="Icircumflex" unicode="&#xce;" horiz-adv-x="223" 
d="M-88 1462l108 191h78l109 -191h-55l-93 142l-92 -142h-55zM39 0v1380h63v-1380h-63z" />
    <glyph glyph-name="Idieresis" unicode="&#xcf;" horiz-adv-x="223" 
d="M-53 1462v88h65v-88h-65zM39 0v1380h63v-1380h-63zM113 1462v88h65v-88h-65z" />
    <glyph glyph-name="Eth" unicode="&#xd0;" horiz-adv-x="727" 
d="M-215 657v64h500v-64h-500zM25 0v1380h266q319 -8 319 -372v-635q-6 -373 -319 -373h-266zM88 63h188q268 0 269 322v610q0 322 -269 322h-188v-1254z" />
    <glyph glyph-name="Ntilde" unicode="&#xd1;" horiz-adv-x="737" 
d="M18 0v1380h56l444 -1104l33 -118l-2 98v1124h65v-1380h-53l-459 1137l-18 86v-41v-78v-1104h-66zM37 1540q66 49 130 59.5t109.5 -8t94.5 -37t87 -28.5t85 18l53 -53q-74 -35 -124 -30t-100 23.5t-90 38t-90.5 13.5t-101.5 -49z" />
    <glyph glyph-name="Ograve" unicode="&#xd2;" 
d="M20 352v678q4 164 81 264.5t232.5 100.5t235.5 -104.5t80 -260.5v-678q0 -109 -29.5 -184.5t-78.5 -113.5t-99.5 -53t-107.5 -15q-55 0 -105.5 15t-100.5 53t-79 113.5t-29 184.5zM84 352q4 -135 63.5 -219t186.5 -84q129 0 189.5 87t60.5 216v678q-8 301 -250 301
q-129 -4 -189.5 -88t-60.5 -213v-678zM246 1655h69l109 -191h-55z" />
    <glyph glyph-name="Oacute" unicode="&#xd3;" 
d="M20 352v678q4 164 81 264.5t232.5 100.5t235.5 -104.5t80 -260.5v-678q0 -109 -29.5 -184.5t-78.5 -113.5t-99.5 -53t-107.5 -15q-55 0 -105.5 15t-100.5 53t-79 113.5t-29 184.5zM84 352q4 -135 63.5 -219t186.5 -84q129 0 189.5 87t60.5 216v678q-8 301 -250 301
q-129 -4 -189.5 -88t-60.5 -213v-678zM244 1460l108 191h70l-123 -191h-55z" />
    <glyph glyph-name="Ocircumflex" unicode="&#xd4;" 
d="M20 352v678q4 164 81 264.5t232.5 100.5t235.5 -104.5t80 -260.5v-678q0 -109 -29.5 -184.5t-78.5 -113.5t-99.5 -53t-107.5 -15q-55 0 -105.5 15t-100.5 53t-79 113.5t-29 184.5zM84 352q4 -135 63.5 -219t186.5 -84q129 0 189.5 87t60.5 216v678q-8 301 -250 301
q-129 -4 -189.5 -88t-60.5 -213v-678zM184 1464l109 191h78l108 -191h-55l-92 142l-92 -142h-56z" />
    <glyph glyph-name="Otilde" unicode="&#xd5;" 
d="M20 352v678q4 164 81 264.5t232.5 100.5t235.5 -104.5t80 -260.5v-678q0 -109 -29.5 -184.5t-78.5 -113.5t-99.5 -53t-107.5 -15q-55 0 -105.5 15t-100.5 53t-79 113.5t-29 184.5zM53 1540q66 49 130.5 59.5t109.5 -8t94 -37t87 -28.5t85 18l53 -53q-74 -35 -124 -30
t-100 23.5t-90 38t-90 13.5t-102 -49zM84 352q4 -135 63.5 -219t186.5 -84q129 0 189.5 87t60.5 216v678q-8 301 -250 301q-129 -4 -189.5 -88t-60.5 -213v-678z" />
    <glyph glyph-name="Odieresis" unicode="&#xd6;" 
d="M20 352v678q4 164 81 264.5t232.5 100.5t235.5 -104.5t80 -260.5v-678q0 -109 -29.5 -184.5t-78.5 -113.5t-99.5 -53t-107.5 -15q-55 0 -105.5 15t-100.5 53t-79 113.5t-29 184.5zM84 352q4 -135 63.5 -219t186.5 -84q129 0 189.5 87t60.5 216v678q-8 301 -250 301
q-129 -4 -189.5 -88t-60.5 -213v-678zM217 1462v88h66v-88h-66zM383 1462v88h66v-88h-66z" />
    <glyph glyph-name="multiply" unicode="&#xd7;" horiz-adv-x="731" 
d="M106 481l205 205l-205 205l46 45l204 -205l205 205l45 -45l-205 -205l205 -205l-45 -45l-205 205l-204 -205z" />
    <glyph glyph-name="Oslash" unicode="&#xd8;" 
d="M20 367v649q4 164 81 264t233 100q133 0 215 -82l33 82h69l-57 -141q55 -96 55 -223v-649q0 -109 -29.5 -185t-78.5 -113.5t-99.5 -53t-107.5 -15.5q-131 0 -209 70l-27 -70h-69l49 125q-58 90 -58 242zM84 367q0 -84 29 -158l409 1024q-63 84 -188 84
q-129 -4 -189.5 -88t-60.5 -213v-649zM154 139q63 -76 180 -76q129 0 189.5 87.5t60.5 216.5v649q-4 86 -23 139z" />
    <glyph glyph-name="Ugrave" unicode="&#xd9;" horiz-adv-x="776" 
d="M14 326v1056h64v-1056q0 -86 25.5 -145.5t68.5 -85t80 -35t78 -9.5t77.5 9.5t78.5 35t68 85t26 145.5v1056h63v-1056q0 -100 -30.5 -171t-81 -105t-99.5 -48t-102.5 -14t-103.5 14t-100 48t-81 105t-31 171zM240 1655h69l109 -191h-56z" />
    <glyph glyph-name="Uacute" unicode="&#xda;" horiz-adv-x="776" 
d="M14 326v1056h64v-1056q0 -86 25.5 -145.5t68.5 -85t80 -35t78 -9.5t77.5 9.5t78.5 35t68 85t26 145.5v1056h63v-1056q0 -100 -30.5 -171t-81 -105t-99.5 -48t-102.5 -14t-103.5 14t-100 48t-81 105t-31 171zM242 1460l108 191h70l-123 -191h-55z" />
    <glyph glyph-name="Ucircumflex" unicode="&#xdb;" horiz-adv-x="776" 
d="M14 326v1056h64v-1056q0 -86 25.5 -145.5t68.5 -85t80 -35t78 -9.5t77.5 9.5t78.5 35t68 85t26 145.5v1056h63v-1056q0 -100 -30.5 -171t-81 -105t-99.5 -48t-102.5 -14t-103.5 14t-100 48t-81 105t-31 171zM180 1466l109 191h78l108 -191h-55l-92 142l-92 -142h-56z" />
    <glyph glyph-name="Udieresis" unicode="&#xdc;" horiz-adv-x="776" 
d="M14 326v1056h64v-1056q0 -86 25.5 -145.5t68.5 -85t80 -35t78 -9.5t77.5 9.5t78.5 35t68 85t26 145.5v1056h63v-1056q0 -100 -30.5 -171t-81 -105t-99.5 -48t-102.5 -14t-103.5 14t-100 48t-81 105t-31 171zM211 1462v88h65v-88h-65zM377 1462v88h65v-88h-65z" />
    <glyph glyph-name="Yacute" unicode="&#xdd;" horiz-adv-x="681" 
d="M0 1380h74l239 -694l240 694h74l-281 -800v-580h-63v580zM225 1462l109 191h69l-122 -191h-56z" />
    <glyph glyph-name="Thorn" unicode="&#xde;" horiz-adv-x="671" 
d="M27 0v1380h63v-383q72 102 217 103q139 0 208 -96.5t69 -231.5v-137q-4 -143 -71 -236.5t-206 -93.5q-145 2 -217 109v-414h-63zM94 655q0 -287 213 -286q211 0 211 286v97q0 285 -211 284q-213 0 -213 -284v-97z" />
    <glyph glyph-name="germandbls" unicode="&#xdf;" horiz-adv-x="667" 
d="M0 0v971q-2 115 21.5 198.5t53 122.5t75 60.5t68 24.5t48.5 3q268 0 269 -338q0 -156 -55.5 -248t-129.5 -100q111 -18 183.5 -104t72.5 -236q0 -197 -89 -275.5t-257 -78.5h-14v63h14q139 0 210 62.5t71 228.5q0 111 -49.5 183.5t-112 97t-133.5 24.5v64q106 0 164.5 82
t58.5 237q0 137 -44 206t-163 69q-29 -2 -41 -4t-48 -23.5t-54.5 -58.5t-35.5 -115t-17 -188v-205v-64v-596v-63h-66z" />
    <glyph glyph-name="agrave" unicode="&#xe0;" horiz-adv-x="802" 
d="M2 0l317 1380h52l315 -1380h-65l-95 422h-364l-94 -422h-66zM178 485h334l-168 721zM270 1653h70l109 -191h-56z" />
    <glyph glyph-name="aacute" unicode="&#xe1;" horiz-adv-x="802" 
d="M2 0l317 1380h52l315 -1380h-65l-95 422h-364l-94 -422h-66zM178 485h334l-168 721zM264 1462l109 191h69l-123 -191h-55z" />
    <glyph glyph-name="acircumflex" unicode="&#xe2;" horiz-adv-x="802" 
d="M2 0l317 1380h52l315 -1380h-65l-95 422h-364l-94 -422h-66zM178 485h334l-168 721zM197 1464l108 191h78l109 -191h-56l-92 142l-92 -142h-55z" />
    <glyph glyph-name="atilde" unicode="&#xe3;" horiz-adv-x="802" 
d="M2 0l317 1380h52l315 -1380h-65l-95 422h-364l-94 -422h-66zM66 1542q66 49 130 59.5t109 -8t94.5 -37t87 -28.5t84.5 18l54 -53q-74 -35 -124 -30t-100.5 23.5t-90.5 38t-90 13.5t-101 -49zM178 485h334l-168 721z" />
    <glyph glyph-name="adieresis" unicode="&#xe4;" horiz-adv-x="802" 
d="M2 0l317 1380h52l315 -1380h-65l-95 422h-364l-94 -422h-66zM178 485h334l-168 721zM229 1462v88h66v-88h-66zM395 1462v88h66v-88h-66z" />
    <glyph glyph-name="aring" unicode="&#xe5;" horiz-adv-x="802" 
d="M2 0l317 1380h52l315 -1380h-65l-95 422h-364l-94 -422h-66zM178 485h334l-168 721zM193 1603.5q0 63.5 44 107.5t105 44q63 0 108.5 -44t45.5 -107.5t-45 -106.5t-109 -43q-61 0 -105 43t-44 106.5zM252 1606q0 -39 25.5 -64.5t64.5 -25.5t66.5 25.5t27.5 64.5
t-27.5 66.5t-66.5 27.5t-64.5 -27.5t-25.5 -66.5z" />
    <glyph glyph-name="ae" unicode="&#xe6;" horiz-adv-x="1165" 
d="M2 0l522 1380h512v-63h-432v-594h268v-64h-268v-596h432v-63h-495v659h-205l-260 -659h-74zM348 723h193v387l-2 96z" />
    <glyph glyph-name="ccedilla" unicode="&#xe7;" horiz-adv-x="739" 
d="M16 352v678q0 106 30 182t79 114t99 53.5t108 15.5q55 0 105 -15.5t99.5 -53.5t79 -113.5t29.5 -182.5v-47h-65v47q0 131 -61.5 216t-186.5 85q-129 0 -189.5 -86t-60.5 -215v-678q0 -133 61.5 -218t188.5 -85q125 0 186.5 89t61.5 214v47h65v-47q0 -109 -28.5 -184.5
t-79 -113.5t-100.5 -53t-105 -15q-57 0 -107.5 15t-99.5 53t-79 113.5t-30 184.5zM281 -236l26 25q35 -18 77 -2t48 63q4 35 -23.5 50.5t-105.5 -0.5l14 102h50l-23 -65q31 25 93.5 10t60.5 -80q-2 -72 -72.5 -107t-144.5 4z" />
    <glyph glyph-name="egrave" unicode="&#xe8;" horiz-adv-x="620" 
d="M20 0v1380h496v-63h-432v-594h289v-64h-289v-596h432v-63h-496zM201 1653h69l109 -191h-55z" />
    <glyph glyph-name="eacute" unicode="&#xe9;" horiz-adv-x="620" 
d="M20 0v1380h496v-63h-432v-594h289v-64h-289v-596h432v-63h-496zM221 1462l109 191h69l-123 -191h-55z" />
    <glyph glyph-name="ecircumflex" unicode="&#xea;" horiz-adv-x="620" 
d="M20 0v1380h496v-63h-432v-594h289v-64h-289v-596h432v-63h-496zM123 1462l108 191h78l109 -191h-56l-92 142l-92 -142h-55z" />
    <glyph glyph-name="edieresis" unicode="&#xeb;" horiz-adv-x="620" 
d="M20 0v1380h496v-63h-432v-594h289v-64h-289v-596h432v-63h-496zM156 1462v88h65v-88h-65zM322 1462v88h65v-88h-65z" />
    <glyph glyph-name="igrave" unicode="&#xec;" horiz-adv-x="223" 
d="M-8 1653h69l109 -191h-55zM47 0v1380h64v-1380h-64z" />
    <glyph glyph-name="iacute" unicode="&#xed;" horiz-adv-x="223" 
d="M-10 1464l108 191h70l-123 -191h-55zM47 0v1380h64v-1380h-64z" />
    <glyph glyph-name="icircumflex" unicode="&#xee;" horiz-adv-x="223" 
d="M-70 1464l109 191h78l108 -191h-55l-92 142l-92 -142h-56zM47 0v1380h64v-1380h-64z" />
    <glyph glyph-name="idieresis" unicode="&#xef;" horiz-adv-x="223" 
d="M-35 1464v88h66v-88h-66zM47 0v1380h64v-1380h-64zM131 1464v88h66v-88h-66z" />
    <glyph glyph-name="eth" unicode="&#xf0;" horiz-adv-x="727" 
d="M-215 657v64h500v-64h-500zM25 0v1380h266q319 -8 319 -372v-635q-6 -373 -319 -373h-266zM88 63h188q268 0 269 322v610q0 322 -269 322h-188v-1254z" />
    <glyph glyph-name="ntilde" unicode="&#xf1;" horiz-adv-x="737" 
d="M18 0v1380h56l444 -1104l33 -118l-2 98v1124h65v-1380h-53l-459 1137l-18 86v-41v-78v-1104h-66zM37 1540q66 49 130 59.5t109.5 -8t94.5 -37t87 -28.5t85 18l53 -53q-74 -35 -124 -30t-100 23.5t-90 38t-90.5 13.5t-101.5 -49z" />
    <glyph glyph-name="ograve" unicode="&#xf2;" 
d="M20 352v678q4 164 81 264.5t232.5 100.5t235.5 -104.5t80 -260.5v-678q0 -109 -29.5 -184.5t-78.5 -113.5t-99.5 -53t-107.5 -15q-55 0 -105.5 15t-100.5 53t-79 113.5t-29 184.5zM84 352q4 -135 63.5 -219t186.5 -84q129 0 189.5 87t60.5 216v678q-8 301 -250 301
q-129 -4 -189.5 -88t-60.5 -213v-678zM238 1653h69l109 -191h-56z" />
    <glyph glyph-name="oacute" unicode="&#xf3;" 
d="M20 352v678q4 164 81 264.5t232.5 100.5t235.5 -104.5t80 -260.5v-678q0 -109 -29.5 -184.5t-78.5 -113.5t-99.5 -53t-107.5 -15q-55 0 -105.5 15t-100.5 53t-79 113.5t-29 184.5zM84 352q4 -135 63.5 -219t186.5 -84q129 0 189.5 87t60.5 216v678q-8 301 -250 301
q-129 -4 -189.5 -88t-60.5 -213v-678zM240 1462l108 191h70l-123 -191h-55z" />
    <glyph glyph-name="ocircumflex" unicode="&#xf4;" 
d="M20 352v678q4 164 81 264.5t232.5 100.5t235.5 -104.5t80 -260.5v-678q0 -109 -29.5 -184.5t-78.5 -113.5t-99.5 -53t-107.5 -15q-55 0 -105.5 15t-100.5 53t-79 113.5t-29 184.5zM84 352q4 -135 63.5 -219t186.5 -84q129 0 189.5 87t60.5 216v678q-8 301 -250 301
q-129 -4 -189.5 -88t-60.5 -213v-678zM180 1464l109 191h78l108 -191h-55l-92 142l-92 -142h-56z" />
    <glyph glyph-name="otilde" unicode="&#xf5;" 
d="M20 352v678q4 164 81 264.5t232.5 100.5t235.5 -104.5t80 -260.5v-678q0 -109 -29.5 -184.5t-78.5 -113.5t-99.5 -53t-107.5 -15q-55 0 -105.5 15t-100.5 53t-79 113.5t-29 184.5zM53 1540q66 49 130.5 59.5t109.5 -8t94 -37t87 -28.5t85 18l53 -53q-74 -35 -124 -30
t-100 23.5t-90 38t-90 13.5t-102 -49zM84 352q4 -135 63.5 -219t186.5 -84q129 0 189.5 87t60.5 216v678q-8 301 -250 301q-129 -4 -189.5 -88t-60.5 -213v-678z" />
    <glyph glyph-name="odieresis" unicode="&#xf6;" 
d="M20 352v678q4 164 81 264.5t232.5 100.5t235.5 -104.5t80 -260.5v-678q0 -109 -29.5 -184.5t-78.5 -113.5t-99.5 -53t-107.5 -15q-55 0 -105.5 15t-100.5 53t-79 113.5t-29 184.5zM84 352q4 -135 63.5 -219t186.5 -84q129 0 189.5 87t60.5 216v678q-8 301 -250 301
q-129 -4 -189.5 -88t-60.5 -213v-678zM221 1462v88h66v-88h-66zM387 1462v88h66v-88h-66z" />
    <glyph glyph-name="divide" unicode="&#xf7;" horiz-adv-x="622" 
d="M27 657h499v64h-499v-64zM242 293v115h63v-115h-63zM242 897v115h63v-115h-63z" />
    <glyph glyph-name="oslash" unicode="&#xf8;" 
d="M20 367v649q4 164 81 264t233 100q129 0 211 -77l30 77h70l-55 -135q59 -94 59 -229v-649q0 -109 -29.5 -185t-78.5 -113.5t-99.5 -53t-107.5 -15.5q-131 0 -213 74l-29 -74h-69l53 131q-56 89 -56 236zM84 367q0 -82 25 -150l409 1020q-63 80 -184 80
q-129 -4 -189.5 -88t-60.5 -213v-649zM150 143q63 -80 184 -80q129 0 189.5 87.5t60.5 216.5v649q-4 92 -25 149z" />
    <glyph glyph-name="ugrave" unicode="&#xf9;" horiz-adv-x="776" 
d="M14 326v1056h64v-1056q0 -86 25.5 -145.5t68.5 -85t80 -35t78 -9.5t77.5 9.5t78.5 35t68 85t26 145.5v1056h63v-1056q0 -100 -30.5 -171t-81 -105t-99.5 -48t-102.5 -14t-103.5 14t-100 48t-81 105t-31 171zM240 1653h69l109 -191h-56z" />
    <glyph glyph-name="uacute" unicode="&#xfa;" horiz-adv-x="776" 
d="M14 326v1056h64v-1056q0 -86 25.5 -145.5t68.5 -85t80 -35t78 -9.5t77.5 9.5t78.5 35t68 85t26 145.5v1056h63v-1056q0 -100 -30.5 -171t-81 -105t-99.5 -48t-102.5 -14t-103.5 14t-100 48t-81 105t-31 171zM250 1462l108 191h70l-123 -191h-55z" />
    <glyph glyph-name="ucircumflex" unicode="&#xfb;" horiz-adv-x="776" 
d="M14 326v1056h64v-1056q0 -86 25.5 -145.5t68.5 -85t80 -35t78 -9.5t77.5 9.5t78.5 35t68 85t26 145.5v1056h63v-1056q0 -100 -30.5 -171t-81 -105t-99.5 -48t-102.5 -14t-103.5 14t-100 48t-81 105t-31 171zM176 1466l109 191h77l109 -191h-55l-92 142l-93 -142h-55z" />
    <glyph glyph-name="udieresis" unicode="&#xfc;" horiz-adv-x="776" 
d="M14 326v1056h64v-1056q0 -86 25.5 -145.5t68.5 -85t80 -35t78 -9.5t77.5 9.5t78.5 35t68 85t26 145.5v1056h63v-1056q0 -100 -30.5 -171t-81 -105t-99.5 -48t-102.5 -14t-103.5 14t-100 48t-81 105t-31 171zM213 1462v88h66v-88h-66zM379 1462v88h65v-88h-65z" />
    <glyph glyph-name="yacute" unicode="&#xfd;" horiz-adv-x="681" 
d="M0 1380h74l239 -694l240 694h74l-281 -800v-580h-63v580zM231 1464l109 191h70l-123 -191h-56z" />
    <glyph glyph-name="thorn" unicode="&#xfe;" horiz-adv-x="671" 
d="M27 0v1380h63v-383q72 102 217 103q139 0 208 -96.5t69 -231.5v-137q-4 -143 -71 -236.5t-206 -93.5q-145 2 -217 109v-414h-63zM94 655q0 -287 213 -286q211 0 211 286v97q0 285 -211 284q-213 0 -213 -284v-97z" />
    <glyph glyph-name="ydieresis" unicode="&#xff;" horiz-adv-x="681" 
d="M0 1380h74l239 -694l240 694h74l-281 -800v-580h-63v580zM199 1462v88h65v-88h-65zM365 1462v88h65v-88h-65z" />
    <glyph glyph-name="OE" unicode="&#x152;" horiz-adv-x="1171" 
d="M20 367v649q4 164 81 264t233 100q166 0 252 -127v127h495v-63h-432v-594h269v-64h-269v-596h432v-63h-495v119q-82 -119 -252 -119q-55 0 -105.5 15.5t-100.5 53t-79 113.5t-29 185zM84 367q4 -135 63.5 -219.5t186.5 -84.5q129 0 189.5 87.5t60.5 216.5v649
q-8 301 -250 301q-129 -4 -189.5 -88t-60.5 -213v-649z" />
    <glyph glyph-name="oe" unicode="&#x153;" horiz-adv-x="1226" 
d="M20 367v649q4 164 81 264t233 100q166 0 252 -127v127h495v-63h-432v-594h269v-64h-269v-596h432v-63h-495v119q-82 -119 -252 -119q-55 0 -105.5 15.5t-100.5 53t-79 113.5t-29 185zM84 367q4 -135 63.5 -219.5t186.5 -84.5q129 0 189.5 87.5t60.5 216.5v649
q-8 301 -250 301q-129 -4 -189.5 -88t-60.5 -213v-649z" />
    <glyph glyph-name="Ydieresis" unicode="&#x178;" horiz-adv-x="681" 
d="M0 1380h74l239 -694l240 694h74l-281 -800v-580h-63v580zM201 1464v88h65v-88h-65zM367 1464v88h65v-88h-65z" />
    <glyph glyph-name="circumflex" unicode="&#x2c6;" horiz-adv-x="339" 
d="M20 1192l109 190h78l108 -190h-55l-92 141l-92 -141h-56z" />
    <glyph glyph-name="tilde" unicode="&#x2dc;" horiz-adv-x="608" 
d="M6 1374q66 49 130.5 59.5t109.5 -8t94 -37t87 -28.5t85 18l53 -53q-74 -35 -124 -30t-100 23.5t-90 38t-90 13.5t-102 -49z" />
    <glyph glyph-name="uni2000" unicode="&#x2000;" horiz-adv-x="876" 
 />
    <glyph glyph-name="uni2001" unicode="&#x2001;" horiz-adv-x="1755" 
 />
    <glyph glyph-name="uni2002" unicode="&#x2002;" horiz-adv-x="876" 
 />
    <glyph glyph-name="uni2003" unicode="&#x2003;" horiz-adv-x="1755" 
 />
    <glyph glyph-name="uni2004" unicode="&#x2004;" horiz-adv-x="583" 
 />
    <glyph glyph-name="uni2005" unicode="&#x2005;" horiz-adv-x="438" 
 />
    <glyph glyph-name="uni2006" unicode="&#x2006;" horiz-adv-x="290" 
 />
    <glyph glyph-name="uni2007" unicode="&#x2007;" horiz-adv-x="290" 
 />
    <glyph glyph-name="uni2008" unicode="&#x2008;" horiz-adv-x="219" 
 />
    <glyph glyph-name="uni2009" unicode="&#x2009;" horiz-adv-x="350" 
 />
    <glyph glyph-name="uni200A" unicode="&#x200a;" horiz-adv-x="96" 
 />
    <glyph glyph-name="uni2010" unicode="&#x2010;" horiz-adv-x="612" 
d="M27 657v64h499v-64h-499z" />
    <glyph glyph-name="uni2011" unicode="&#x2011;" horiz-adv-x="612" 
d="M27 657v64h499v-64h-499z" />
    <glyph glyph-name="figuredash" unicode="&#x2012;" horiz-adv-x="612" 
d="M27 657v64h499v-64h-499z" />
    <glyph glyph-name="endash" unicode="&#x2013;" horiz-adv-x="612" 
d="M27 657v64h499v-64h-499z" />
    <glyph glyph-name="emdash" unicode="&#x2014;" horiz-adv-x="612" 
d="M27 657v64h499v-64h-499z" />
    <glyph glyph-name="quoteleft" unicode="&#x2018;" horiz-adv-x="165" 
d="M25 1303v79h86v-98q-33 0 -33 -14q0 -33 28 -56l-14 -24q-67 23 -67 113z" />
    <glyph glyph-name="quoteright" unicode="&#x2019;" horiz-adv-x="165" 
d="M27 1284v98h86v-79q0 -90 -68 -113l-14 24q29 23 28 56q1 14 -32 14z" />
    <glyph glyph-name="quotesinglbase" unicode="&#x201a;" horiz-adv-x="161" 
d="M-47 -102l61 190h70l-76 -190h-55z" />
    <glyph glyph-name="quotedblleft" unicode="&#x201c;" horiz-adv-x="307" 
d="M16 1303v79h86v-98q-33 0 -32 -14q0 -33 28 -56l-14 -24q-68 23 -68 113zM150 1303v79h86v-98q-33 0 -33 -14q0 -33 28 -56l-14 -24q-67 23 -67 113z" />
    <glyph glyph-name="quotedblright" unicode="&#x201d;" horiz-adv-x="301" 
d="M27 1284v98h86v-79q0 -90 -68 -113l-14 24q29 23 28 56q1 14 -32 14zM160 1284v98h86v-79q0 -90 -68 -113l-14 24q29 23 29 56q0 14 -33 14z" />
    <glyph glyph-name="quotedblbase" unicode="&#x201e;" horiz-adv-x="299" 
d="M-47 -102l61 190h70l-76 -190h-55zM96 -102l62 190h69l-75 -190h-56z" />
    <glyph glyph-name="bullet" unicode="&#x2022;" horiz-adv-x="327" 
d="M35 678q0 43 30.5 72.5t73.5 29.5t73 -28.5t30 -73.5t-30 -75t-73 -30t-73.5 30t-30.5 75z" />
    <glyph glyph-name="ellipsis" unicode="&#x2026;" horiz-adv-x="497" 
d="M25 0v88h65v-88h-65zM190 0v88h66v-88h-66zM356 0v88h66v-88h-66z" />
    <glyph glyph-name="uni202F" unicode="&#x202f;" horiz-adv-x="350" 
 />
    <glyph glyph-name="guilsinglleft" unicode="&#x2039;" horiz-adv-x="768" 
d="M45 690l543 690h80l-543 -690l543 -690h-80z" />
    <glyph glyph-name="guilsinglright" unicode="&#x203a;" horiz-adv-x="768" 
d="M45 0l543 690l-543 690h80l543 -690l-543 -690h-80z" />
    <glyph glyph-name="fraction" unicode="&#x2044;" horiz-adv-x="786" 
d="M43 0l553 1380h70l-553 -1380h-70z" />
    <glyph glyph-name="uni205F" unicode="&#x205f;" horiz-adv-x="438" 
 />
    <glyph glyph-name="Euro" unicode="&#x20ac;" horiz-adv-x="749" 
d="M-66 432v64h123v305h-123v63h123v152q0 106 30 182t79 114t99 53t108 15q162 0 231 -90l4 -6l-43 -49q-4 8 -14 22.5t-59.5 37t-118.5 22.5q-129 0 -189.5 -86t-60.5 -215v-152h332v-63h-332v-305h332v-64h-332v-65q0 -133 61.5 -218.5t188.5 -85.5t188 95l4 6l60 -43
q-8 -14 -25.5 -33.5t-82 -53.5t-144.5 -34q-57 0 -107.5 15.5t-99.5 53t-79 113.5t-30 185v65h-123z" />
    <glyph glyph-name="trademark" unicode="&#x2122;" horiz-adv-x="1789" 
 />
    <glyph glyph-name="uniE000" unicode="&#xe000;" horiz-adv-x="1380" 
d="M0 1380h1380v-1380h-1380v1380z" />
    <glyph glyph-name="uniFB01" unicode="&#xfb01;" horiz-adv-x="632" 
d="M14 0v1380h514v-1380h-63v1317h-387v-594h268v-64h-268v-659h-64z" />
    <glyph glyph-name="uniFB02" unicode="&#xfb02;" horiz-adv-x="1042" 
d="M14 0v1380h512v-1317h422v-63h-487v1317h-383v-594h268v-64h-268v-659h-64z" />
    <glyph glyph-name="uniFB03" unicode="&#xfb03;" horiz-adv-x="1411" 
d="M1227 0v1380h63v-1380h-63zM608 0v1380h496v-63h-432v-594h289v-64h-289v-659h-64zM14 0v1380h496v-63h-432v-594h289v-64h-289v-659h-64z" />
    <glyph glyph-name="uniFB04" unicode="&#xfb04;" horiz-adv-x="1767" 
d="M1196 0v1380h66v-1317h422v-63h-488zM608 0v1380h496v-63h-432v-594h289v-64h-289v-659h-64zM14 0v1380h496v-63h-432v-594h289v-64h-289v-659h-64z" />
    </font>
</defs>
</svg>
